<svg id="visual" viewBox="0 0 960 540" width="960" height="540" xmlns="http://www.w3.org/2000/svg" xmlns:xlink="http://www.w3.org/1999/xlink" version="1.1"><rect x="0" y="0" width="960" height="540" fill="#002233"></rect><path d="M0 398L22.8 393.7C45.7 389.3 91.3 380.7 137 374.3C182.7 368 228.3 364 274 374.5C319.7 385 365.3 410 411.2 416.8C457 423.7 503 412.3 548.8 411.5C594.7 410.7 640.3 420.3 686 419C731.7 417.7 777.3 405.3 823 393C868.7 380.7 914.3 368.3 937.2 362.2L960 356L960 541L937.2 541C914.3 541 868.7 541 823 541C777.3 541 731.7 541 686 541C640.3 541 594.7 541 548.8 541C503 541 457 541 411.2 541C365.3 541 319.7 541 274 541C228.3 541 182.7 541 137 541C91.3 541 45.7 541 22.8 541L0 541Z" fill="#171E30" stroke-linecap="round" stroke-linejoin="miter"></path></svg>