<svg xmlns="http://www.w3.org/2000/svg" version="1.1" xmlns:xlink="http://www.w3.org/1999/xlink" xmlns:svgjs="http://svgjs.dev/svgjs" width="1000" height="1000" viewBox="0 0 1000 1000"><rect width="1000" height="1000" fill="#ffffff"></rect><g transform="matrix(0.7,0,0,0.7,149.57575757575756,444.2906913319374)"><svg viewBox="0 0 396 63" data-background-color="#f4f5f4" preserveAspectRatio="xMidYMid meet" height="159" width="1000" xmlns="http://www.w3.org/2000/svg" xmlns:xlink="http://www.w3.org/1999/xlink"><g id="tight-bounds" transform="matrix(1,0,0,1,0.2400000000000091,0.03357094418640827)"><svg viewBox="0 0 395.52 62.9328581116272" height="62.9328581116272" width="395.52"><g><svg viewBox="0 0 531.458089383592 84.5625417967589" height="62.9328581116272" width="395.52"><g><rect width="4.773205812167832" height="84.5625417967589" x="118.66958039820994" y="0" fill="#000000" opacity="1" stroke-width="0" stroke="transparent" fill-opacity="1" class="rect-s$-0" data-fill-palette-color="primary" rx="1%" id="s$-0" data-palette-color="#00b37a"></rect></g><g transform="matrix(1,0,0,1,135.938089383592,0.2103545815839709)"><svg viewBox="0 0 395.52 84.14183263359095" height="84.14183263359095" width="395.52"><g id="textblocktransform"><svg viewBox="0 0 395.52 84.14183263359095" height="84.14183263359095" width="395.52" id="textblock"><g><svg viewBox="0 0 395.52 52.92915490441306" height="52.92915490441306" width="395.52"><g transform="matrix(1,0,0,1,0,0)"><svg width="395.52" viewBox="5.2 -37.15 279.83 37.449999999999996" height="52.92915490441306" data-palette-color="#00b37a"><path d="M14.75 0.3L14.75 0.3Q9.55 0.3 7.38-2.45 5.2-5.2 5.2-11.1L5.2-11.1Q5.2-13 5.43-15.1 5.65-17.2 6-19.4L6-19.4Q6.9-24.9 8.72-28.88 10.55-32.85 13.65-35 16.75-37.15 21.45-37.15L21.45-37.15Q25.55-37.15 28.33-36.68 31.1-36.2 33.3-35.55L33.3-35.55 32.85-32.55Q30.85-32.95 28.05-33.27 25.25-33.6 21.7-33.6L21.7-33.6Q18-33.6 15.65-31.88 13.3-30.15 12-26.78 10.7-23.4 9.9-18.4L9.9-18.4Q9.2-14.05 9.2-11.1L9.2-11.1Q9.2-7.15 10.8-5.25 12.4-3.35 16-3.35L16-3.35Q17.2-3.35 18.63-3.55 20.05-3.75 21.48-4.08 22.9-4.4 24.05-4.73 25.2-5.05 25.85-5.3L25.85-5.3 27.6-16.25 18.7-16.25 19.15-19.3Q20.5-19.5 22.6-19.58 24.7-19.65 27.65-19.65L27.65-19.65Q28.3-19.65 29.08-19.63 29.85-19.6 30.6-19.58 31.35-19.55 31.95-19.5L31.95-19.5 28.85 0 25.95 0 25.7-2.6Q25.05-2.25 23.8-1.75 22.55-1.25 20.98-0.8 19.4-0.35 17.78-0.03 16.15 0.3 14.75 0.3ZM39.85 0L35.9 0 41.75-36.8 55.1-36.8Q56.8-36.8 58.4-36.4 60-36 61.25-35.05 62.5-34.1 63.25-32.48 64-30.85 64-28.35L64-28.35Q64-27.65 63.92-26.9 63.85-26.15 63.7-25.35L63.7-25.35Q63.25-22.45 62.3-20.63 61.35-18.8 60.15-17.78 58.95-16.75 57.7-16.32 56.45-15.9 55.45-15.7L55.45-15.7 60.45 0 56.45 0 51.75-15.15Q50.95-15.15 49.72-15.18 48.5-15.2 47.12-15.23 45.75-15.25 44.47-15.28 43.2-15.3 42.3-15.35L42.3-15.35 39.85 0ZM45.1-33.2L42.75-18.35 52.25-18.35Q54.05-18.35 55.55-18.93 57.05-19.5 58.15-21.05 59.25-22.6 59.7-25.65L59.7-25.65Q59.8-26.25 59.85-26.8 59.9-27.35 59.9-27.8L59.9-27.8Q59.9-30.05 59.07-31.2 58.25-32.35 57-32.77 55.75-33.2 54.35-33.2L54.35-33.2 45.1-33.2ZM80.2 0.3L80.2 0.3Q77.4 0.3 75.2-0.15 73-0.6 71.45-1.78 69.9-2.95 69.1-5.08 68.3-7.2 68.3-10.6L68.3-10.6Q68.3-12.35 68.5-14.43 68.7-16.5 69.05-18.9L69.05-18.9Q69.95-24.4 71.32-27.95 72.7-31.5 74.75-33.48 76.8-35.45 79.62-36.27 82.45-37.1 86.2-37.1L86.2-37.1Q88.9-37.1 91.07-36.6 93.25-36.1 94.82-34.85 96.4-33.6 97.25-31.38 98.1-29.15 98.1-25.7L98.1-25.7Q98.1-24.05 97.9-21.93 97.7-19.8 97.3-17.4L97.3-17.4Q96.45-11.85 95.02-8.38 93.6-4.9 91.55-3 89.5-1.1 86.67-0.4 83.85 0.3 80.2 0.3ZM80.85-3.3L80.85-3.3Q83.65-3.3 85.67-3.93 87.7-4.55 89.15-6.15 90.6-7.75 91.6-10.63 92.6-13.5 93.35-18.05L93.35-18.05Q93.7-20.35 93.9-22.3 94.1-24.25 94.1-25.7L94.1-25.7Q94.1-29 93.1-30.68 92.1-32.35 90.22-32.93 88.35-33.5 85.6-33.5L85.6-33.5Q82.9-33.5 80.85-32.88 78.8-32.25 77.32-30.63 75.85-29 74.8-26 73.75-23 73-18.25L73-18.25Q72.7-16 72.47-14.08 72.25-12.15 72.25-10.75L72.25-10.75Q72.25-7.7 73.17-6.08 74.1-4.45 76-3.88 77.9-3.3 80.85-3.3ZM112.19 0.3L112.19 0.3Q106.99 0.3 104.82-2.45 102.64-5.2 102.64-11.1L102.64-11.1Q102.64-13 102.87-15.1 103.09-17.2 103.44-19.4L103.44-19.4Q104.34-24.9 106.17-28.88 107.99-32.85 111.09-35 114.19-37.15 118.89-37.15L118.89-37.15Q122.99-37.15 125.77-36.68 128.54-36.2 130.74-35.55L130.74-35.55 130.29-32.55Q128.29-32.95 125.49-33.27 122.69-33.6 119.14-33.6L119.14-33.6Q115.44-33.6 113.09-31.88 110.74-30.15 109.44-26.78 108.14-23.4 107.34-18.4L107.34-18.4Q106.64-14.05 106.64-11.1L106.64-11.1Q106.64-7.15 108.24-5.25 109.84-3.35 113.44-3.35L113.44-3.35Q114.64-3.35 116.07-3.55 117.49-3.75 118.92-4.08 120.34-4.4 121.49-4.73 122.64-5.05 123.29-5.3L123.29-5.3 125.04-16.25 116.14-16.25 116.59-19.3Q117.94-19.5 120.04-19.58 122.14-19.65 125.09-19.65L125.09-19.65Q125.74-19.65 126.52-19.63 127.29-19.6 128.04-19.58 128.79-19.55 129.39-19.5L129.39-19.5 126.29 0 123.39 0 123.14-2.6Q122.49-2.25 121.24-1.75 119.99-1.25 118.42-0.8 116.84-0.35 115.22-0.03 113.59 0.3 112.19 0.3ZM144.79 0.3L144.79 0.3Q142.74 0.3 140.59 0.18 138.44 0.05 136.57-0.15 134.69-0.35 133.34-0.6L133.34-0.6 133.79-3.6Q135.89-3.45 138.94-3.35 141.99-3.25 144.89-3.25L144.89-3.25Q147.29-3.25 149.12-3.7 150.94-4.15 152.07-5.35 153.19-6.55 153.54-8.85L153.54-8.85 153.94-11.25Q154.04-11.65 154.04-12.03 154.04-12.4 154.04-12.7L154.04-12.7Q154.04-14.7 152.82-15.63 151.59-16.55 148.84-16.55L148.84-16.55 144.39-16.55Q140.69-16.55 138.72-18.18 136.74-19.8 136.74-23L136.74-23Q136.74-23.9 136.89-24.95L136.89-24.95 137.39-28.1Q137.94-31.7 139.52-33.63 141.09-35.55 143.54-36.33 145.99-37.1 149.19-37.1L149.19-37.1Q150.14-37.1 151.54-37.02 152.94-36.95 154.49-36.8 156.04-36.65 157.49-36.48 158.94-36.3 159.99-36.05L159.99-36.05 159.54-33Q157.89-33.15 155.89-33.25 153.89-33.35 152.02-33.4 150.14-33.45 148.84-33.45L148.84-33.45Q146.64-33.45 145.04-32.98 143.44-32.5 142.47-31.28 141.49-30.05 141.14-27.75L141.14-27.75 140.79-25.35Q140.74-24.95 140.69-24.58 140.64-24.2 140.64-23.85L140.64-23.85Q140.64-21.85 141.79-21.08 142.94-20.3 145.24-20.3L145.24-20.3 149.79-20.3Q153.94-20.3 155.94-18.55 157.94-16.8 157.94-13.6L157.94-13.6Q157.94-12.7 157.79-11.6L157.79-11.6 157.29-8.25Q156.79-4.95 155.17-3.1 153.54-1.25 150.94-0.48 148.34 0.3 144.79 0.3ZM175.04 0L171.09 0 176.34-33.2 164.79-33.2 165.34-36.8 192.44-36.8 191.84-33.2 180.29-33.2 175.04 0ZM205.24 0.3L205.24 0.3Q202.44 0.3 200.24-0.15 198.04-0.6 196.49-1.78 194.94-2.95 194.14-5.08 193.34-7.2 193.34-10.6L193.34-10.6Q193.34-12.35 193.54-14.43 193.74-16.5 194.09-18.9L194.09-18.9Q194.99-24.4 196.36-27.95 197.74-31.5 199.79-33.48 201.84-35.45 204.66-36.27 207.49-37.1 211.24-37.1L211.24-37.1Q213.94-37.1 216.11-36.6 218.29-36.1 219.86-34.85 221.44-33.6 222.29-31.38 223.14-29.15 223.14-25.7L223.14-25.7Q223.14-24.05 222.94-21.93 222.74-19.8 222.34-17.4L222.34-17.4Q221.49-11.85 220.06-8.38 218.64-4.9 216.59-3 214.54-1.1 211.71-0.4 208.89 0.3 205.24 0.3ZM205.89-3.3L205.89-3.3Q208.69-3.3 210.71-3.93 212.74-4.55 214.19-6.15 215.64-7.75 216.64-10.63 217.64-13.5 218.39-18.05L218.39-18.05Q218.74-20.35 218.94-22.3 219.14-24.25 219.14-25.7L219.14-25.7Q219.14-29 218.14-30.68 217.14-32.35 215.26-32.93 213.39-33.5 210.64-33.5L210.64-33.5Q207.94-33.5 205.89-32.88 203.84-32.25 202.36-30.63 200.89-29 199.84-26 198.79-23 198.04-18.25L198.04-18.25Q197.74-16 197.51-14.08 197.29-12.15 197.29-10.75L197.29-10.75Q197.29-7.7 198.21-6.08 199.14-4.45 201.04-3.88 202.94-3.3 205.89-3.3ZM230.03 0L226.08 0 231.93-36.8 245.28-36.8Q246.98-36.8 248.58-36.4 250.18-36 251.43-35.05 252.68-34.1 253.43-32.48 254.18-30.85 254.18-28.35L254.18-28.35Q254.18-27.65 254.11-26.9 254.03-26.15 253.88-25.35L253.88-25.35Q253.43-22.45 252.48-20.63 251.53-18.8 250.33-17.78 249.13-16.75 247.88-16.32 246.63-15.9 245.63-15.7L245.63-15.7 250.63 0 246.63 0 241.93-15.15Q241.13-15.15 239.91-15.18 238.68-15.2 237.31-15.23 235.93-15.25 234.66-15.28 233.38-15.3 232.48-15.35L232.48-15.35 230.03 0ZM235.28-33.2L232.93-18.35 242.43-18.35Q244.23-18.35 245.73-18.93 247.23-19.5 248.33-21.05 249.43-22.6 249.88-25.65L249.88-25.65Q249.98-26.25 250.03-26.8 250.08-27.35 250.08-27.8L250.08-27.8Q250.08-30.05 249.26-31.2 248.43-32.35 247.18-32.77 245.93-33.2 244.53-33.2L244.53-33.2 235.28-33.2ZM264.68 0.3L264.68 0.3Q263.38 0.3 262.08 0.03 260.78-0.25 259.73-1.05 258.68-1.85 258.16-3.33 257.63-4.8 258.03-7.15L258.03-7.15 261.58-29.5Q262.03-32.35 263.28-33.93 264.53-35.5 266.31-36.15 268.08-36.8 270.03-36.8L270.03-36.8Q273.78-36.75 277.51-36.63 281.23-36.5 285.03-36.35L285.03-36.35 284.48-33.15 270.43-33.15Q268.38-33.15 267.11-32.1 265.83-31.05 265.38-28.55L265.38-28.55 264.08-20.15 280.18-19.75 279.68-16.7 263.48-16.5 262.13-7.85Q261.88-6.05 262.33-5.08 262.78-4.1 263.76-3.75 264.73-3.4 266.13-3.4L266.13-3.4 279.83-3.4 279.33-0.2Q275.78-0.05 272.13 0.1 268.48 0.25 264.68 0.3Z" opacity="1" transform="matrix(1,0,0,1,0,0)" fill="#000000" class="undefined-text-0" data-fill-palette-color="primary" id="text-0"></path></svg></g></svg></g><g transform="matrix(1,0,0,1,0,65.42445807762728)"><svg viewBox="0 0 232.209792 18.717374555963673" height="18.717374555963673" width="232.209792"><g transform="matrix(1,0,0,1,0,0)"><svg width="232.209792" viewBox="1.86 -38.09 604.79 48.760000000000005" height="18.717374555963673" data-palette-color="#00b37a"><path d="M18.02 0L1.86 0 1.86-2.12 5.83-2.44 5.83-33.08 1.86-33.4 1.86-35.55 5.83-35.55 16.09-35.55Q21.63-35.55 24.73-33.22 27.83-30.88 27.83-26.2L27.83-26.2Q27.83-23.41 26.26-21.37 24.68-19.34 21.92-18.63L21.92-18.63Q24.12-18.26 25.79-17.02 27.47-15.77 28.41-13.93 29.35-12.08 29.35-9.91L29.35-9.91Q29.35-5.13 26.26-2.56 23.17 0 18.02 0L18.02 0ZM8.76-17.14L8.76-2.44 18.02-2.44Q21.95-2.44 24.18-4.39 26.42-6.35 26.42-9.86L26.42-9.86Q26.42-11.99 25.51-13.64 24.61-15.28 22.83-16.21 21.04-17.14 18.48-17.14L18.48-17.14 8.76-17.14ZM8.76-33.08L8.76-19.6 16.94-19.6Q20.75-19.6 22.81-21.31 24.88-23.02 24.88-26.29L24.88-26.29Q24.88-29.69 22.64-31.38 20.41-33.08 16.09-33.08L16.09-33.08 8.76-33.08ZM44.5 0.51L44.5 0.51Q40.35 0.51 38.05-2.32 35.74-5.15 35.74-11.11L35.74-11.11 35.74-23.95 32.47-24.27 32.47-26.42 35.74-26.42 38.67-26.42 38.67-11.06Q38.67-6.23 40.26-4.11 41.84-2 44.85-2L44.85-2Q48.24-2 50.14-3.58 52.05-5.15 52.76-7.81L52.76-7.81 52.76-23.95 49-24.27 49-26.42 52.76-26.42 55.71-26.42 55.71-2.44 59.25-2.12 59.25 0 53.12 0 52.88-4.35Q51.63-2.03 49.55-0.76 47.46 0.51 44.5 0.51ZM68.33 10.67L68.33 10.67Q67.82 10.67 67.1 10.56 66.38 10.45 66.01 10.35L66.01 10.35 66.35 7.93Q66.69 7.98 67.32 8.04 67.94 8.11 68.23 8.11L68.23 8.11Q70.14 8.11 71.26 6.85 72.38 5.59 73.31 3.27L73.31 3.27 74.68-0.32 64.99-24.1 62.13-24.27 62.13-26.42 71.43-26.42 71.43-24.27 68.09-24.05 74.87-7.01 75.97-4 76.12-4 83.66-24.05 80.22-24.27 80.22-26.42 89.45-26.42 89.45-24.27 86.64-24.1 75.8 4.25Q75.07 6.1 74.14 7.57 73.21 9.03 71.82 9.85 70.43 10.67 68.33 10.67ZM120.74 0.51L120.74 0.51Q115.86 0.51 112.31-1.77 108.75-4.05 106.84-8.12 104.92-12.18 104.92-17.53L104.92-17.53 104.92-18.31Q104.92-23.58 106.89-27.58 108.85-31.57 112.29-33.81 115.74-36.06 120.11-36.06L120.11-36.06Q124.04-36.06 126.78-35.07 129.53-34.08 131.66-32.42L131.66-32.42 131.66-25.81 129.14-25.81 128.9-31.13Q127.36-32.25 125.34-32.89 123.33-33.52 120.33-33.52L120.33-33.52Q116.79-33.52 113.97-31.6 111.15-29.69 109.5-26.28 107.85-22.88 107.85-18.36L107.85-18.36 107.85-17.53Q107.85-12.92 109.38-9.41 110.9-5.91 113.77-3.96 116.64-2 120.72-2L120.72-2Q123.6-2 125.8-2.64 127.99-3.27 129.6-4.15L129.6-4.15 129.6-13.57 122.3-13.67 122.3-16.04 132.53-16.04 132.53-3Q130.63-1.61 127.77-0.55 124.92 0.51 120.74 0.51ZM148.96 0L138.07 0 138.07-2.12 142.05-2.44 142.05-23.95 138.07-24.27 138.07-26.42 144.62-26.42 144.93-22.39 144.96-21.68Q146.08-24.15 148.01-25.52 149.94-26.9 152.62-26.9L152.62-26.9Q153.28-26.9 154.03-26.79 154.77-26.68 155.11-26.56L155.11-26.56 154.75-23.88 152.04-24.05Q149.23-24.12 147.45-22.44 145.67-20.75 144.98-17.97L144.98-17.97 144.98-2.44 148.96-2.12 148.96 0ZM170 0.51L170 0.51Q166.44 0.51 163.82-1.18 161.19-2.88 159.74-5.9 158.29-8.91 158.29-12.79L158.29-12.79 158.29-13.6Q158.29-17.48 159.74-20.48 161.19-23.49 163.82-25.2 166.44-26.9 169.96-26.9L169.96-26.9Q173.5-26.9 176.12-25.2 178.74-23.49 180.2-20.5 181.65-17.5 181.65-13.6L181.65-13.6 181.65-12.79Q181.65-8.89 180.2-5.88 178.74-2.88 176.12-1.18 173.5 0.51 170 0.51ZM170-1.93L170-1.93Q172.71-1.93 174.67-3.37 176.62-4.81 177.67-7.28 178.72-9.74 178.72-12.79L178.72-12.79 178.72-13.6Q178.72-16.63 177.67-19.09 176.62-21.56 174.66-23 172.69-24.44 169.96-24.44L169.96-24.44Q167.22-24.44 165.26-23 163.29-21.56 162.25-19.09 161.22-16.63 161.22-13.6L161.22-13.6 161.22-12.79Q161.22-9.72 162.25-7.26 163.29-4.81 165.26-3.37 167.22-1.93 170-1.93ZM197.74 0.51L197.74 0.51Q194.44 0.51 191.91-1.15 189.39-2.81 187.96-5.79 186.53-8.76 186.53-12.7L186.53-12.7 186.53-13.72Q186.53-17.58 187.91-20.56 189.29-23.54 191.8-25.22 194.32-26.9 197.71-26.9L197.71-26.9Q200.79-26.9 203.18-25.74 205.57-24.58 207.18-22.75L207.18-22.75 207.23-16.77 204.79-16.77 204.4-21.7Q203.18-23 201.55-23.72 199.91-24.44 197.79-24.44L197.79-24.44Q195.3-24.44 193.42-23.05 191.54-21.66 190.5-19.23 189.46-16.8 189.46-13.72L189.46-13.72 189.46-12.7Q189.46-9.47 190.49-7.04 191.51-4.61 193.37-3.27 195.22-1.93 197.76-1.93L197.76-1.93Q200.71-1.93 202.69-3.48 204.67-5.03 205.09-8.06L205.09-8.06 207.7-8.06 207.75-7.91Q207.53-5.42 206.27-3.52 205.01-1.61 202.85-0.55 200.69 0.51 197.74 0.51ZM224.61 0.51L224.61 0.51Q221.22 0.51 218.63-1.14 216.04-2.78 214.58-5.7 213.11-8.62 213.11-12.43L213.11-12.43 213.11-13.77Q213.11-17.55 214.58-20.52 216.04-23.49 218.55-25.2 221.05-26.9 224.13-26.9L224.13-26.9Q227.37-26.9 229.68-25.51 231.99-24.12 233.22-21.59 234.45-19.07 234.45-15.65L234.45-15.65 234.45-13.16 216.14-13.16 216.09-12.08Q216.12-9.16 217.18-6.86 218.24-4.57 220.16-3.25 222.07-1.93 224.61-1.93L224.61-1.93Q227.1-1.93 229-2.72 230.89-3.52 232.33-4.88L232.33-4.88 233.57-2.88Q232.04-1.42 229.85-0.45 227.67 0.51 224.61 0.51ZM216.29-15.75L216.34-15.6 231.52-15.6 231.52-16.33Q231.52-18.65 230.63-20.5 229.74-22.34 228.09-23.39 226.44-24.44 224.13-24.44L224.13-24.44Q222.03-24.44 220.34-23.3 218.66-22.17 217.59-20.2 216.53-18.24 216.29-15.75L216.29-15.75ZM249.86 0L238.97 0 238.97-2.12 242.95-2.44 242.95-23.95 238.97-24.27 238.97-26.42 245.51-26.42 245.83-22.39 245.85-21.68Q246.97-24.15 248.9-25.52 250.83-26.9 253.52-26.9L253.52-26.9Q254.18-26.9 254.92-26.79 255.67-26.68 256.01-26.56L256.01-26.56 255.64-23.88 252.93-24.05Q250.12-24.12 248.34-22.44 246.56-20.75 245.88-17.97L245.88-17.97 245.88-2.44 249.86-2.12 249.86 0ZM270.24 0L259.35 0 259.35-2.12 263.33-2.44 263.33-23.95 259.35-24.27 259.35-26.42 266.26-26.42 266.26-2.44 270.24-2.12 270.24 0ZM266.26-33.86L262.99-33.86 262.99-38.09 266.26-38.09 266.26-33.86ZM286.57 0.51L286.57 0.51Q283.18 0.51 280.59-1.14 278-2.78 276.54-5.7 275.07-8.62 275.07-12.43L275.07-12.43 275.07-13.77Q275.07-17.55 276.54-20.52 278-23.49 280.5-25.2 283-26.9 286.08-26.9L286.08-26.9Q289.33-26.9 291.64-25.51 293.94-24.12 295.18-21.59 296.41-19.07 296.41-15.65L296.41-15.65 296.41-13.16 278.1-13.16 278.05-12.08Q278.07-9.16 279.14-6.86 280.2-4.57 282.11-3.25 284.03-1.93 286.57-1.93L286.57-1.93Q289.06-1.93 290.95-2.72 292.84-3.52 294.28-4.88L294.28-4.88 295.53-2.88Q293.99-1.42 291.81-0.45 289.62 0.51 286.57 0.51ZM278.24-15.75L278.29-15.6 293.48-15.6 293.48-16.33Q293.48-18.65 292.59-20.5 291.7-22.34 290.05-23.39 288.4-24.44 286.08-24.44L286.08-24.44Q283.98-24.44 282.3-23.3 280.61-22.17 279.55-20.2 278.49-18.24 278.24-15.75L278.24-15.75ZM311.18 0.51L311.18 0.51Q308.39 0.51 306.01-0.23 303.63-0.98 301.53-2.39L301.53-2.39 301.51-7.81 303.9-7.81 304.32-3.93Q305.73-2.83 307.47-2.34 309.2-1.86 311.18-1.86L311.18-1.86Q314.5-1.86 316.23-3.3 317.96-4.74 317.96-6.71L317.96-6.71Q317.96-8.57 316.41-10 314.86-11.43 310.91-12.3L310.91-12.3Q306.17-13.33 304.06-15.04 301.95-16.75 301.95-19.8L301.95-19.8Q301.95-21.8 303.07-23.41 304.19-25.02 306.26-25.96 308.32-26.9 311.1-26.9L311.1-26.9Q314.01-26.9 316.16-26.06 318.3-25.22 319.84-23.8L319.84-23.8 319.97-18.38 317.57-18.38 317.23-22.29Q316.13-23.34 314.67-23.91 313.2-24.49 311.1-24.49L311.1-24.49Q308.12-24.49 306.51-23.11 304.9-21.73 304.9-19.9L304.9-19.9Q304.9-18.7 305.4-17.81 305.9-16.92 307.33-16.21 308.76-15.5 311.49-14.87L311.49-14.87Q316.45-13.75 318.67-11.83 320.89-9.91 320.89-6.86L320.89-6.86Q320.89-3.64 318.39-1.56 315.89 0.51 311.18 0.51ZM346.21 0.51L346.21 0.51Q342.45 0.51 340.32-1.49 338.2-3.49 338.2-6.91L338.2-6.91Q338.2-9.35 339.61-11.19 341.03-13.04 343.63-14.06 346.23-15.09 349.79-15.09L349.79-15.09 355.26-15.09 355.26-18.12Q355.26-20.97 353.57-22.72 351.87-24.46 348.45-24.46L348.45-24.46Q346.52-24.46 345-23.84 343.47-23.22 342.35-22.27L342.35-22.27 342.1-18.24 339.69-18.24 339.69-23.75Q341.4-25.22 343.57-26.06 345.74-26.9 348.5-26.9L348.5-26.9Q353.16-26.9 355.68-24.56 358.19-22.22 358.19-18.07L358.19-18.07 358.19-5.32Q358.19-4.54 358.24-3.77 358.29-3 358.41-2.25L358.41-2.25 361.56-2.12 361.56 0 355.8 0Q355.51-1.44 355.4-2.32 355.29-3.2 355.26-4.3L355.26-4.3Q353.82-2.17 351.45-0.83 349.09 0.51 346.21 0.51ZM346.55-2.05L346.55-2.05Q349.26-2.05 351.69-3.48 354.12-4.91 355.26-7.28L355.26-7.28 355.26-12.84 349.77-12.84Q345.72-12.84 343.42-11.1 341.13-9.35 341.13-6.81L341.13-6.81Q341.13-4.69 342.59-3.37 344.06-2.05 346.55-2.05ZM374.91 0.46L374.91 0.46Q372.13 0.46 370.59-1.26 369.05-2.98 369.05-6.81L369.05-6.81 369.05-24.05 364.49-24.05 364.49-26.42 369.05-26.42 369.05-33.2 371.98-33.2 371.98-26.42 378.14-26.42 378.14-24.05 371.98-24.05 371.98-6.81Q371.98-4.17 372.92-3.02 373.86-1.86 375.43-1.86L375.43-1.86Q376.26-1.86 377.06-1.97 377.87-2.08 378.72-2.2L378.72-2.2 379.16-0.1Q378.28 0.17 377.16 0.32 376.04 0.46 374.91 0.46ZM419.56 0L395.07 0 395.07-2.12 399.05-2.44 399.05-33.08 395.07-33.4 395.07-35.55 399.05-35.55 401.98-35.55 405.96-35.55 405.96-33.4 401.98-33.08 401.98-2.42 416.9-2.42 417.17-8.15 419.56-8.15 419.56 0ZM436.31 0.51L436.31 0.51Q432.74 0.51 430.12-1.18 427.49-2.88 426.04-5.9 424.59-8.91 424.59-12.79L424.59-12.79 424.59-13.6Q424.59-17.48 426.04-20.48 427.49-23.49 430.12-25.2 432.74-26.9 436.26-26.9L436.26-26.9Q439.8-26.9 442.42-25.2 445.05-23.49 446.5-20.5 447.95-17.5 447.95-13.6L447.95-13.6 447.95-12.79Q447.95-8.89 446.5-5.88 445.05-2.88 442.42-1.18 439.8 0.51 436.31 0.51ZM436.31-1.93L436.31-1.93Q439.02-1.93 440.97-3.37 442.92-4.81 443.97-7.28 445.02-9.74 445.02-12.79L445.02-12.79 445.02-13.6Q445.02-16.63 443.97-19.09 442.92-21.56 440.96-23 438.99-24.44 436.26-24.44L436.26-24.44Q433.52-24.44 431.56-23 429.59-21.56 428.56-19.09 427.52-16.63 427.52-13.6L427.52-13.6 427.52-12.79Q427.52-9.72 428.56-7.26 429.59-4.81 431.56-3.37 433.52-1.93 436.31-1.93ZM464.02 0L461.38 0 454.01-24.12 451.03-24.27 451.03-26.42 460.43-26.42 460.43-24.27 456.98-24.02 461.52-8.54 462.75-4.2 462.89-4.2 464.31-8.54 470.34-26.42 472.93-26.42 478.93-8.57 480.45-3.93 480.59-3.96 482.01-8.57 486.55-24.05 483.08-24.27 483.08-26.42 492.38-26.42 492.38-24.27 489.41-24.07 482.06 0 479.22 0 473.05-18.02 471.71-22.36 471.56-22.34 470.24-18.02 464.02 0ZM524.75 0.51L524.75 0.51Q519.48 0.51 515.88-1.79 512.28-4.1 510.43-8.18 508.59-12.26 508.59-17.53L508.59-17.53 508.59-17.99Q508.59-23.32 510.51-27.38 512.42-31.45 515.94-33.75 519.45-36.06 524.19-36.06L524.19-36.06Q527.85-36.06 530.5-35.03 533.15-34.01 535.2-32.23L535.2-32.23 535.2-25.32 532.71-25.32 532.47-30.98Q531.39-31.79 530.21-32.35 529.02-32.91 527.57-33.22 526.12-33.52 524.19-33.52L524.19-33.52Q520.31-33.52 517.46-31.56 514.62-29.59 513.07-26.11 511.52-22.63 511.52-18.04L511.52-18.04 511.52-17.53Q511.52-12.79 513.09-9.3 514.67-5.81 517.64-3.91 520.6-2 524.78-2L524.78-2Q527.02-2 529.11-2.56 531.2-3.13 532.64-4.05L532.64-4.05 532.88-9.42 535.35-9.42 535.35-2.34Q533.18-0.93 530.45-0.21 527.73 0.51 524.75 0.51ZM552.19 0.51L552.19 0.51Q548.63 0.51 546-1.18 543.38-2.88 541.92-5.9 540.47-8.91 540.47-12.79L540.47-12.79 540.47-13.6Q540.47-17.48 541.92-20.48 543.38-23.49 546-25.2 548.63-26.9 552.14-26.9L552.14-26.9Q555.68-26.9 558.31-25.2 560.93-23.49 562.38-20.5 563.84-17.5 563.84-13.6L563.84-13.6 563.84-12.79Q563.84-8.89 562.38-5.88 560.93-2.88 558.31-1.18 555.68 0.51 552.19 0.51ZM552.19-1.93L552.19-1.93Q554.9-1.93 556.85-3.37 558.81-4.81 559.86-7.28 560.91-9.74 560.91-12.79L560.91-12.79 560.91-13.6Q560.91-16.63 559.86-19.09 558.81-21.56 556.84-23 554.88-24.44 552.14-24.44L552.14-24.44Q549.41-24.44 547.44-23 545.48-21.56 544.44-19.09 543.4-16.63 543.4-13.6L543.4-13.6 543.4-12.79Q543.4-9.72 544.44-7.26 545.48-4.81 547.44-3.37 549.41-1.93 552.19-1.93ZM578.26 0.51L578.26 0.51Q575.48 0.51 573.1-0.23 570.72-0.98 568.62-2.39L568.62-2.39 568.59-7.81 570.99-7.81 571.4-3.93Q572.82-2.83 574.55-2.34 576.29-1.86 578.26-1.86L578.26-1.86Q581.58-1.86 583.32-3.3 585.05-4.74 585.05-6.71L585.05-6.71Q585.05-8.57 583.5-10 581.95-11.43 577.99-12.3L577.99-12.3Q573.26-13.33 571.15-15.04 569.03-16.75 569.03-19.8L569.03-19.8Q569.03-21.8 570.16-23.41 571.28-25.02 573.34-25.96 575.41-26.9 578.19-26.9L578.19-26.9Q581.09-26.9 583.24-26.06 585.39-25.22 586.93-23.8L586.93-23.8 587.05-18.38 584.66-18.38 584.32-22.29Q583.22-23.34 581.75-23.91 580.29-24.49 578.19-24.49L578.19-24.49Q575.21-24.49 573.6-23.11 571.99-21.73 571.99-19.9L571.99-19.9Q571.99-18.7 572.49-17.81 572.99-16.92 574.42-16.21 575.85-15.5 578.58-14.87L578.58-14.87Q583.54-13.75 585.76-11.83 587.98-9.91 587.98-6.86L587.98-6.86Q587.98-3.64 585.48-1.56 582.97 0.51 578.26 0.51ZM602.41 0.46L602.41 0.46Q599.62 0.46 598.08-1.26 596.55-2.98 596.55-6.81L596.55-6.81 596.55-24.05 591.98-24.05 591.98-26.42 596.55-26.42 596.55-33.2 599.48-33.2 599.48-26.42 605.63-26.42 605.63-24.05 599.48-24.05 599.48-6.81Q599.48-4.17 600.42-3.02 601.36-1.86 602.92-1.86L602.92-1.86Q603.75-1.86 604.55-1.97 605.36-2.08 606.21-2.2L606.21-2.2 606.65-0.1Q605.77 0.17 604.65 0.32 603.53 0.46 602.41 0.46Z" opacity="1" transform="matrix(1,0,0,1,0,0)" fill="#000000" class="undefined-text-1" data-fill-palette-color="secondary" id="text-1"></path></svg></g></svg></g></svg></g></svg></g><g transform="matrix(1,0,0,1,0,0.2103545815839709)"><svg viewBox="0 0 106.17427722499573 84.14183263359095" height="84.14183263359095" width="106.17427722499573"><g><svg version="1.1" xmlns="http://www.w3.org/2000/svg" xmlns:xlink="http://www.w3.org/1999/xlink" x="0" y="0" viewBox="0.062 10.717 99.99900000000001 79.248" enable-background="new 0.062 10.717 100 79.248" xml:space="preserve" width="106.17427722499573" height="84.14183263359095" class="icon-icon-0" data-fill-palette-color="accent" id="icon-0"><path d="M85.852 17.327c1.549-0.289 2.724-1.641 2.724-3.274 0-1.844-1.494-3.336-3.338-3.336h-70.35c-1.843 0-3.336 1.492-3.336 3.336 0 1.632 1.173 2.985 2.722 3.274L0.062 44.758v5.338c0 2.396 2.54 4.338 5.671 4.338 1.051 0 2.033-0.224 2.877-0.605v36.136h82.902V53.829c0.846 0.383 1.825 0.605 2.879 0.605 3.131 0 5.67-1.941 5.67-4.338v-5.338L85.852 17.327zM16.839 54.433c-2.986 0-5.407-1.94-5.407-4.337v-0.5h-0.027v-4.837l10.716-27.369h8.561l-8.435 27.369v5.338c0 0.001 0 0.002 0 0.002C22.245 52.492 19.825 54.433 16.839 54.433zM38.999 54.433c-2.987 0-5.408-1.94-5.408-4.337v-0.5l0 0v-4.837l4.479-27.369h8.534l-2.197 27.369v4.837 0.5C44.405 52.491 41.984 54.433 38.999 54.433zM61.154 54.433c-2.985 0-5.406-1.94-5.406-4.337v-0.5-4.837l-2.2-27.369h8.508l4.479 27.369v5.338c0 0.073 0.012 0.146 0.016 0.216C66.407 52.606 64.049 54.433 61.154 54.433zM88.692 50.096c0 2.396-2.421 4.337-5.407 4.337-2.985 0-5.406-1.94-5.406-4.337v-0.5-4.837l-8.438-27.369h8.562l10.716 27.369v4.837h-0.026V50.096L88.692 50.096z" fill="#000000" data-fill-palette-color="accent"></path></svg></g></svg></g></svg></g><defs></defs></svg><rect width="395.52" height="62.9328581116272" fill="none" stroke="none" visibility="hidden"></rect></g></svg></g></svg>